<?xml version="1.0" encoding="utf-8"?>
<!-- Generator: Adobe Illustrator 16.0.0, SVG Export Plug-In . SVG Version: 6.00 Build 0)  -->
<!DOCTYPE svg PUBLIC "-//W3C//DTD SVG 1.1//EN" "http://www.w3.org/Graphics/SVG/1.1/DTD/svg11.dtd">
<svg version="1.1" id="Layer_1" xmlns="http://www.w3.org/2000/svg" xmlns:xlink="http://www.w3.org/1999/xlink" x="0px" y="0px"
	 width="760px" height="320px" viewBox="0 0 760 320" enable-background="new 0 0 760 320" xml:space="preserve">
<g>
	<path fill="none" d="M513.562,276.334c0,0.931,0.06,1.838,0.149,2.731l4.636-2.708c6.691-3.907,11.022-9.618,12.992-17.125
		c0.425-1.619,0.703-3.219,0.854-4.8C520.724,255.747,513.562,264.559,513.562,276.334z"/>
	<path fill="none" d="M405.765,58.598c-14.676,0-27.203,5.189-37.582,15.568c-10.348,10.363-15.553,22.891-15.553,37.551
		c0,14.66,5.205,27.187,15.553,37.551c10.379,10.379,22.906,15.568,37.582,15.568c14.646,0,27.173-5.189,37.553-15.568
		c10.379-10.364,15.553-22.891,15.553-37.551c0-14.66-5.174-27.188-15.553-37.551C432.937,63.787,420.411,58.598,405.765,58.598z"/>
	<path fill="none" d="M581.622,67.164c-2.901-1.451-7.071-2.175-12.511-2.175h-11.604v33.359h14.687
		c10.152,0,16.5-5.076,16.5-16.861C588.693,75.504,587.243,69.883,581.622,67.164z"/>
	<path fill="none" d="M669.379,297.982c3.475,0,6.354-0.297,9.234-1.258c7.906-2.586,12.93-9.752,12.93-20.242
		c0-10.344-4.803-17.657-12.56-20.394c-3.03-1.034-5.985-1.182-9.604-1.182h-9.53v43.073h9.53V297.982z"/>
	<path fill="none" d="M87.537,77.883c0-4.532-1.812-9.428-5.982-11.24c-2.358-0.908-4.533-1.088-7.978-1.088H60.161v24.839h15.954
		C84.093,90.394,87.537,84.773,87.537,77.883z"/>
	<path fill="none" d="M84.817,143.333c5.078-2.176,7.797-8.158,7.797-14.141c0-7.616-4.351-13.417-13.598-13.417H60.161v28.646
		h18.674C81.191,144.421,83.186,144.059,84.817,143.333z"/>
	<path fill="none" d="M532.24,249.718c-0.327-4.057-1.598-7.983-3.816-11.778c-3.912-6.691-9.618-11.022-17.124-12.99
		c-7.505-1.971-14.604-0.998-21.298,2.914l-9.168,5.357l27.6,47.225c-0.174-1.312-0.266-2.659-0.266-4.037
		C508.168,262.046,517.68,251.01,532.24,249.718z"/>
	<path fill="none" d="M691.68,139.032l7.564-4.421c2.975-1.737,4.91-4.273,5.807-7.606c0.854-3.344,0.41-6.503-1.326-9.476
		c-0.177-0.302-0.367-0.587-0.561-0.868H691.68V139.032z"/>
	<polygon fill="none" points="695.944,143.856 705.254,143.856 700.777,141.031 	"/>
	<polygon fill="none" points="644.723,158.523 644.723,145.669 659.227,145.669 659.227,129.014 635.559,142.847 	"/>
	<path d="M405.764,15.135c-26.683,0-49.432,9.436-68.303,28.292c-18.842,18.871-28.278,41.634-28.278,68.289
		c0,13.713,2.064,24.963,6.219,33.766l68.853,145.999c1.871,4.142,4.813,7.414,8.774,9.809c3.961,2.379,8.196,3.576,12.735,3.576
		c4.513,0,8.747-1.197,12.708-3.576c3.961-2.395,6.96-5.667,8.97-9.809L496.1,145.483c4.155-8.803,6.218-20.053,6.218-33.766
		c0-26.655-9.407-49.418-28.279-68.29C455.168,24.571,432.419,15.135,405.764,15.135z M443.317,149.268
		c-10.38,10.379-22.906,15.568-37.553,15.568c-14.676,0-27.203-5.189-37.582-15.568c-10.348-10.364-15.553-22.891-15.553-37.551
		c0-14.66,5.205-27.188,15.553-37.551c10.379-10.379,22.906-15.568,37.582-15.568c14.646,0,27.172,5.189,37.553,15.568
		c10.379,10.363,15.553,22.891,15.553,37.551C458.87,126.377,453.696,138.904,443.317,149.268z"/>
	<path d="M13.203,146.234v23.571h64.001c7.07,0,12.51-0.183,19.4-1.814c15.229-3.807,28.827-16.679,28.827-36.26
		c0-12.329-5.258-25.02-20.668-29.734v-0.363c10.152-5.62,15.41-16.498,15.41-27.739c0-15.049-9.065-26.289-22.663-31.003
		c-7.252-2.358-13.598-2.72-23.751-2.72H13.203V63.74h14.505v82.494H13.203z M60.161,65.555h13.416c3.445,0,5.62,0.18,7.978,1.088
		c4.17,1.812,5.982,6.708,5.982,11.24c0,6.89-3.444,12.511-11.422,12.511H60.161V65.555z M60.161,115.775h18.855
		c9.247,0,13.598,5.801,13.598,13.417c0,5.983-2.719,11.965-7.797,14.141c-1.631,0.726-3.626,1.088-5.982,1.088H60.161V115.775z"/>
	<path d="M134.851,146.235v23.57h58.743v-23.57h-12.873l3.082-46.596c0.362-5.439-0.724-14.504-0.724-14.504h0.724
		c0,0,1.45,8.34,3.445,13.779l17.042,47.321h27.197l17.042-47.321c1.995-5.439,3.445-13.779,3.445-13.779h0.726
		c0,0-1.088,9.065-0.726,14.504l3.082,46.596h-12.873v23.57h58.743v-23.57h-14.141l-6.89-82.494h14.504V40.172h-50.946
		l-21.757,64.181c-2.72,7.978-3.626,13.417-3.626,13.417h-0.363c0,0-0.906-5.439-3.626-13.417l-21.756-64.181h-50.947v23.569h14.504
		l-6.889,82.494H134.851z"/>
	
		<line fill="none" stroke="#000000" stroke-width="0" stroke-linecap="round" stroke-linejoin="round" x1="510.557" y1="145.669" x2="510.551" y2="145.669"/>
	<path d="M626.227,145.669c-4.17,0-6.709-1.088-8.34-4.17l-9.972-19.218c-2.903-5.621-7.979-7.796-7.979-7.796v-0.363
		c12.873-6.889,21.031-18.493,21.031-35.536c0-19.037-10.333-31.728-25.927-36.442c-7.433-2.176-16.136-2.538-25.927-2.538h-58.562
		v23.569h14.504v82.494h-14.498v23.569h60.557v-23.569h-13.6v-21.938h6.528c6.709,0,9.062,1.451,11.239,5.621l15.771,30.277
		c3.625,7.072,7.795,9.609,18.312,9.609h17.176l-12.386-21.193l5.452-3.191l11.153,19.083v-16.784l-0.868-1.485H626.227z
		 M572.193,98.348h-14.687V64.989h11.604c5.439,0,9.609,0.724,12.511,2.175c5.621,2.719,7.071,8.34,7.071,14.323
		C588.693,93.272,582.346,98.348,572.193,98.348z"/>
	<path d="M691.68,116.661h11.484c-1.706-2.481-4.05-4.133-7.044-4.94c-3.36-0.88-6.526-0.452-9.502,1.286l-15.863,9.27
		l12.628,21.605l8.297-4.85V116.661z"/>
	<polygon points="719.602,143.856 717.065,143.856 736.48,156.13 730.367,159.703 705.254,143.856 695.944,143.856 686.567,149.336 
		698.2,169.238 746.797,169.238 746.797,130.983 719.602,130.983 	"/>
	<path d="M683.428,107.556c4.488-2.623,9.25-3.264,14.284-1.92c5.021,1.316,8.84,4.219,11.464,8.709
		c0.443,0.759,0.815,1.533,1.146,2.316h19.252V91.277H691.68V64.988h25.746V77.86h27.195V39.606h-99.898v23.569h14.504v63.18
		l1.158,1.982l-1.158,0.677v16.655h-14.504v12.854l3.344,5.72l19.619-11.466l3.189,5.453l-18.838,11.008h38.846l-28.768-49.225
		L683.428,107.556z"/>
	<path d="M532.194,254.433c0.151-1.591,0.171-3.162,0.046-4.715c-14.561,1.292-24.072,12.328-24.072,26.69
		c0,1.378,0.092,2.725,0.266,4.037l0.742,1.271l4.536-2.65c-0.09-0.894-0.149-1.801-0.149-2.731
		C513.562,264.559,520.724,255.747,532.194,254.433z"/>
	<path d="M535.062,303.303c7.831,0,20.837-2.955,20.837-11.01v-13.595H540.16v4.286h10.861v8.127c0,5.91-10.714,7.537-15.886,7.537
		c-9.601,0-16.829-5.263-19.92-13.202l-4.63,2.706C514.649,297.262,523.547,303.303,535.062,303.303z"/>
	<path d="M538.489,254.443c5.681,0.665,11.275,3.031,11.275,7.115v3.916h4.948v-3.11l-0.651,0.381l-6.254-10.701
		c-2.744-1.186-6.018-1.961-9.273-2.283C538.631,251.307,538.617,252.867,538.489,254.443z"/>
	<path d="M567.715,254.762h0.296l-0.001,28.521c0,4.876,0.959,8.938,3.177,12.188c3.324,5.023,9.53,7.832,16.771,7.832
		c7.166,0,13.227-2.734,16.623-7.759c2.142-3.103,3.326-7.462,3.326-12.264v-28.519h6.797v-4.285h-18.766v4.285h6.798v28.297
		c0,3.768-0.813,6.942-2.291,9.457c-2.291,3.916-6.946,6.059-12.487,6.059c-5.615,0-10.047-2.069-12.485-5.838
		c-1.552-2.438-2.291-5.762-2.291-9.531v-28.443h6.801v-4.285h-10.867l1.511,2.584L567.715,254.762z"/>
	<polygon points="561.211,250.477 561.211,254.762 564.302,254.762 561.797,250.477 	"/>
	<polygon points="621.133,298.131 621.133,302.415 639.899,302.415 639.899,298.131 633.104,298.131 633.104,254.762 
		639.899,254.762 639.899,250.477 621.133,250.477 621.133,254.762 627.931,254.762 627.931,298.131 	"/>
	<path d="M647.879,298.13v4.288h21.943c3.842,0,7.166-0.223,10.416-1.256c10.344-3.105,16.699-11.898,16.699-24.678
		c0-12.562-6.206-21.5-16.033-24.68c-3.474-1.033-6.65-1.328-11.082-1.328h-21.943v4.285h6.798v43.368H647.879z M659.849,254.907
		h9.53c3.619,0,6.574,0.147,9.604,1.182c7.757,2.736,12.56,10.05,12.56,20.394c0,10.49-5.023,17.656-12.93,20.242
		c-2.88,0.961-5.76,1.258-9.234,1.258v-0.002h-9.53V254.907z"/>
	<polygon points="704.695,298.131 704.695,302.415 742.745,302.415 742.745,291.26 738.091,291.26 738.091,297.982 716.665,297.982 
		716.665,278.479 736.316,278.479 736.316,274.044 716.665,274.044 716.665,254.908 736.686,254.908 736.686,261.264 
		741.415,261.264 741.415,250.477 704.695,250.477 704.695,254.762 711.493,254.762 711.493,298.131 	"/>
	<path fill="#FF3333" d="M538.534,249.761c-0.32-5.166-1.88-10.162-4.698-14.985c-4.781-8.178-11.752-13.471-20.916-15.873
		c-9.207-2.413-17.898-1.231-26.077,3.55l-14.585,8.521l34.67,59.317l3.658-2.138l4.63-2.706l6.291-3.677
		c8.181-4.777,13.479-11.772,15.895-20.979c0.562-2.143,0.919-4.257,1.088-6.347C538.617,252.867,538.631,251.307,538.534,249.761z
		 M518.348,276.357l-4.636,2.708l-4.536,2.65l-0.742-1.271l-27.6-47.225l9.168-5.357c6.694-3.912,13.793-4.885,21.298-2.914
		c7.506,1.968,13.212,6.299,17.124,12.99c2.219,3.795,3.489,7.722,3.816,11.778c0.125,1.553,0.105,3.124-0.046,4.715
		c-0.151,1.581-0.43,3.181-0.854,4.8C529.37,266.739,525.039,272.45,518.348,276.357z"/>
	<polygon fill="#FF3333" points="554.713,262.364 559.556,259.532 524.717,199.924 519.224,203.135 547.808,252.044 
		554.062,262.745 	"/>
	<polygon fill="#FF3333" points="530.502,196.93 561.797,250.477 564.302,254.762 565.171,256.249 567.715,254.762 570.625,253.061 
		569.114,250.477 541.725,203.615 600.203,235.777 606.068,232.35 571.401,173.027 565.947,176.216 594.844,225.663 536.41,193.477 
			"/>
	<polygon fill="#FF3333" points="614.155,148.045 626.541,169.238 643.053,197.49 584.616,165.307 578.71,168.758 613.38,228.076 
		618.831,224.889 589.934,175.441 648.411,207.602 654.277,204.174 630.761,163.938 619.607,144.854 	"/>
	<polygon fill="#FF3333" points="667.686,152.777 648.066,164.243 644.723,158.523 635.559,142.847 659.227,129.014 
		660.385,128.337 659.227,126.355 657.198,122.884 626.92,140.582 629.893,145.669 630.761,147.154 661.589,199.9 691.869,182.205 
		688.681,176.75 663.854,191.26 651.25,169.698 652.037,169.238 670.875,158.23 	"/>
	<path fill="#FF3333" d="M695.944,143.856l4.833-2.825l4.477,2.825l25.113,15.847l6.113-3.573l-19.415-12.274l-10.737-6.788
		c2.95-2.982,4.704-6.557,5.262-10.725c0.449-3.407,0.016-6.633-1.269-9.682c-0.33-0.783-0.702-1.557-1.146-2.316
		c-2.624-4.49-6.442-7.393-11.464-8.709c-5.034-1.344-9.796-0.703-14.284,1.92l-21.312,12.457l28.768,49.225l5.876,10.054
		l5.454-3.188l-4.013-6.865l-11.633-19.902L695.944,143.856z M670.755,122.277l15.863-9.27c2.976-1.738,6.142-2.166,9.502-1.286
		c2.994,0.807,5.338,2.458,7.044,4.94c0.193,0.281,0.384,0.565,0.561,0.868c1.736,2.973,2.181,6.132,1.326,9.476
		c-0.896,3.333-2.832,5.869-5.807,7.606l-7.564,4.421l-8.297,4.85L670.755,122.277z"/>
</g>
</svg>
